<?xml version="1.0" encoding="UTF-8"?>
<svg version="1.1" xmlns="http://www.w3.org/2000/svg" width="500" height="500">
<path d="M0 0 C1.13643267 -0.00445784 2.27286534 -0.00891569 3.44373536 -0.01350862 C5.30177627 -0.01323207 5.30177627 -0.01323207 7.19735336 -0.01294994 C8.53438922 -0.01625207 9.8714241 -0.01997837 11.20845771 -0.02409142 C14.87706516 -0.0340804 18.54565625 -0.03782322 22.21427536 -0.04048073 C26.1736584 -0.04439317 30.1330286 -0.05397102 34.09240341 -0.0626936 C43.65328996 -0.0824343 53.21417754 -0.09252241 62.77507937 -0.10142139 C67.28353165 -0.1058093 71.79198276 -0.1111749 76.30043411 -0.11641026 C91.29904181 -0.13342219 106.29764879 -0.14791379 121.29626465 -0.155159 C125.18645097 -0.15706873 129.07663728 -0.15898908 132.96682358 -0.16094494 C133.9336494 -0.16142868 134.90047522 -0.16191242 135.89659879 -0.16241082 C151.53955443 -0.17070148 167.18243337 -0.19602225 182.82535556 -0.22852562 C198.90571041 -0.26166386 214.98602639 -0.27961397 231.06641555 -0.28280324 C240.08669527 -0.28496237 249.10686322 -0.29362295 258.12710953 -0.31926441 C265.81348891 -0.34106425 273.49972937 -0.3489766 281.18613616 -0.33929763 C285.10133161 -0.33477927 289.01624101 -0.3364935 292.93139648 -0.35605907 C320.49239883 -0.48603684 342.63995011 2.23582466 365.22072983 19.13422108 C366.04444077 19.72203358 366.8681517 20.30984608 367.71682358 20.91547108 C386.62497884 34.80985206 398.03691355 56.84562553 401.61711121 79.72794056 C403.07529837 91.02743034 402.64271006 102.5378332 402.61290383 113.91188955 C402.60604523 117.79199504 402.6166279 121.67206182 402.6248436 125.55215931 C402.63811131 133.13087598 402.63533448 140.709503 402.62660567 148.28822303 C402.61980192 154.45329661 402.61892398 160.61834525 402.62217712 166.78342152 C402.62263682 167.6643255 402.62309652 168.54522947 402.62357015 169.45282751 C402.62452943 171.24294401 402.62550207 173.0330605 402.62648793 174.82317698 C402.63502142 191.56845355 402.62523983 208.31368066 402.60908683 225.05894911 C402.59568551 239.3949369 402.59801418 253.73085179 402.61184311 268.06683826 C402.6279351 284.7564266 402.63419764 301.4459717 402.62500632 318.13556671 C402.62405077 319.91871801 402.62310766 321.70186932 402.62217712 323.48502064 C402.6217143 324.36212903 402.62125147 325.23923741 402.62077462 326.14292485 C402.61819556 332.29320196 402.6225322 338.44345142 402.62961578 344.59372425 C402.63807133 352.09943611 402.63566609 359.60505397 402.61977355 367.11075521 C402.61194497 370.93268484 402.60870547 374.75445834 402.61872101 378.57638645 C402.68017947 404.14058601 401.5614913 427.66364159 386.22072983 449.13422108 C385.58006577 450.07008045 384.9394017 451.00593983 384.27932358 451.97015858 C376.94718177 462.44464687 369.03259343 469.35030666 358.22072983 476.13422108 C357.43053452 476.67047108 356.6403392 477.20672108 355.82619858 477.75922108 C350.75793562 481.07474574 345.5160506 483.3326793 339.84572983 485.38422108 C339.1745311 485.63059315 338.50333237 485.87696522 337.81179428 486.13080311 C327.27953398 489.75725895 316.64546738 490.42932721 305.58504868 490.39491749 C304.24965762 490.39794528 302.9142683 490.40183789 301.57888198 490.40651006 C297.94274363 490.41671814 294.30670468 490.41462677 290.67055845 490.41032946 C286.73585564 490.40784903 282.80117596 490.41689272 278.86648178 490.42436695 C271.17046016 490.43708001 263.47447348 490.43891185 255.77844313 490.43656669 C249.5183745 490.43477939 243.25831642 490.43654198 236.99824905 490.44079113 C235.65879166 490.44168391 235.65879166 490.44168391 234.29227452 490.44259473 C232.47783663 490.44380656 230.66339874 490.4450207 228.84896085 490.44623711 C211.85385767 490.4570998 194.85877437 490.45495631 177.86367008 490.44885226 C162.3426204 490.4436855 146.82163353 490.45493448 131.30059627 490.47395048 C115.33531798 490.49335966 99.37006935 490.50157941 83.4047792 490.49782723 C74.4528673 490.4959197 65.50100883 490.49835886 56.5491066 490.51254177 C48.92723644 490.52449594 41.30545258 490.52581551 33.68358114 490.5137516 C29.80104861 490.50789082 25.91867363 490.50668506 22.03615189 490.51875401 C-8.16267713 490.60603773 -36.98497557 487.034882 -59.99411392 465.12640858 C-64.2533286 460.37323683 -68.06937976 455.31961831 -71.77927017 450.13422108 C-72.43282486 449.22414295 -73.08637955 448.31406483 -73.75973892 447.37640858 C-84.22561705 431.89707448 -88.25731829 414.55608255 -88.16695023 396.03697681 C-88.17113534 394.67582126 -88.17661925 393.3146692 -88.18327004 391.95352346 C-88.19758929 388.25538423 -88.19352287 384.55747042 -88.18610322 380.85931957 C-88.18133992 376.85441075 -88.19390918 372.84954852 -88.20412064 368.84465504 C-88.22125282 361.0148726 -88.22216024 353.1851706 -88.21690773 345.3553743 C-88.21285413 338.98618538 -88.21432367 332.6170201 -88.21965599 326.2478323 C-88.22040441 325.33876824 -88.22115283 324.42970418 -88.22192394 323.49309272 C-88.22345553 321.64588162 -88.22499388 319.79867053 -88.2265389 317.95145945 C-88.24024392 300.65681912 -88.23484048 283.36222412 -88.22335369 266.06758485 C-88.21342484 250.27572375 -88.22635954 234.48397987 -88.25028788 218.69213685 C-88.27472175 202.44315106 -88.28427615 186.19421978 -88.27763516 169.945216 C-88.27415227 160.83623362 -88.2763132 151.72734132 -88.29388618 142.61837292 C-88.30866198 134.86370604 -88.30917384 127.10919267 -88.29181527 119.35452863 C-88.28334664 115.40498447 -88.28105318 111.45571392 -88.29646683 107.50618458 C-88.39336197 80.74190758 -85.86955023 58.50964462 -69.01999283 36.75531483 C-67.87715598 35.26211595 -66.78456703 33.73081251 -65.69723892 32.19672108 C-52.65650517 14.64284619 -29.91605514 4.54330191 -8.93393159 0.599397 C-5.90192965 0.15230804 -3.06190075 0.00559804 0 0 Z " fill="#E0E4E5" transform="translate(90.77927017211914,2.865778923034668)"/>
<path d="M0 0 C0.43699219 1.10794922 0.43699219 1.10794922 0.8828125 2.23828125 C5.52477098 13.72639863 10.81605433 23.64244835 19 33 C19.58136719 33.68835938 20.16273438 34.37671875 20.76171875 35.0859375 C30.46862909 45.74037705 43.09304683 51.25500706 57 54 C57.98613281 54.22300781 58.97226563 54.44601562 59.98828125 54.67578125 C80.15678427 58.60262886 103.41557424 57.27675163 122 48 C122.95003906 47.53078125 123.90007812 47.0615625 124.87890625 46.578125 C143.80188528 36.42786805 152.9653081 19.44885408 160 0 C165.12711786 0.94534711 170.17213034 2.00668884 175.1875 3.4375 C179.47293489 4.64559595 183.74886306 5.5553426 188.125 6.375 C195.93780843 7.88483721 203.47010859 10.07764069 211.0703125 12.41455078 C214.03629581 13.3144025 217.01734033 14.1572433 220 15 C221.09005543 18.2687812 220.91279018 20.11347342 219.77734375 23.34375 C219.48947998 24.17181152 219.20161621 24.99987305 218.9050293 25.85302734 C218.42610229 27.16327881 218.42610229 27.16327881 217.9375 28.5 C217.44987183 29.85085693 217.44987183 29.85085693 216.95239258 31.22900391 C206.92225212 58.49393005 187.90918623 80.18499349 163 95 C162.42685059 95.34949707 161.85370117 95.69899414 161.26318359 96.05908203 C125.7785524 117.4828148 75.3123807 120.52628036 35.6328125 110.98046875 C32.06192984 110.07339023 28.53000094 109.05558139 25 108 C23.8346875 107.67515625 22.669375 107.3503125 21.46875 107.015625 C-9.38734828 97.98118181 -34.89738844 76.79181964 -50.9375 49.125 C-52.69231415 45.80008899 -54.09079566 42.42328714 -55.31640625 38.87109375 C-56.0457459 36.75752501 -56.0457459 36.75752501 -57.5625 33.9375 C-60.14762366 28.14138063 -60.31541233 21.25793668 -61 15 C-51.66666667 12.33333333 -42.33333333 9.66666667 -33 7 C-31.14918823 6.46221924 -31.14918823 6.46221924 -29.26098633 5.91357422 C-25.35403173 4.81903023 -21.45626318 4.18868921 -17.453125 3.5625 C-14.76329159 3.09837105 -14.76329159 3.09837105 -12 1 C-7.98943724 -0.11404521 -4.14363981 -0.08124784 0 0 Z " fill="#1B1C21" transform="translate(168,234)"/>
<path d="M0 0 C1.65 0 3.3 0 5 0 C5 7.59 5 15.18 5 23 C3.35 23 1.7 23 0 23 C-0.495 18.05 -0.495 18.05 -1 13 C-2.32 16.3 -3.64 19.6 -5 23 C-6.32 23 -7.64 23 -9 23 C-9.6509259 21.75264433 -10.29551669 20.50198168 -10.9375 19.25 C-11.47697266 18.20585937 -11.47697266 18.20585937 -12.02734375 17.140625 C-13 15 -13 15 -14 11 C-14.33 14.96 -14.66 18.92 -15 23 C-16.32 23 -17.64 23 -19 23 C-19 15.74 -19 8.48 -19 1 C-17.35 1 -15.7 1 -14 1 C-11.69 5.95 -9.38 10.9 -7 16 C-4.62752587 10.68238557 -2.27995784 5.35790092 0 0 Z " fill="#353636" transform="translate(407,184)"/>
<path d="M0 0 C5.28 0 10.56 0 16 0 C16 1.32 16 2.64 16 4 C14.35 4 12.7 4 11 4 C11 9.94 11 15.88 11 22 C9.35 22 7.7 22 6 22 C6 15.73 6 9.46 6 3 C4.02 3 2.04 3 0 3 C0 2.01 0 1.02 0 0 Z " fill="#28292A" transform="translate(368,185)"/>
<path d="M0 0 C1.65 0 3.3 0 5 0 C5 6.93 5 13.86 5 21 C4.01 21 3.02 21 2 21 C2 16.38 2 11.76 2 7 C0.68 7.33 -0.64 7.66 -2 8 C-1.34 5.36 -0.68 2.72 0 0 Z " fill="#030303" transform="translate(406,185)"/>
<path d="M0 0 C1.32 0 2.64 0 4 0 C6.09230769 4.43076923 6.09230769 4.43076923 5.625 7.3125 C5.41875 7.869375 5.2125 8.42625 5 9 C4.01 8.67 3.02 8.34 2 8 C2 12.29 2 16.58 2 21 C1.34 21 0.68 21 0 21 C0 14.07 0 7.14 0 0 Z " fill="#040405" transform="translate(389,185)"/>
<path d="M0 0 C0.99 0 1.98 0 3 0 C1.16508812 4.74018901 -0.91941459 9.36413251 -3 14 C-5.6855594 11.3144406 -6.06049974 8.62378672 -7 5 C-6.401875 4.9175 -5.80375 4.835 -5.1875 4.75 C-2.39901853 3.79394921 -1.72147066 2.32024306 0 0 Z " fill="#C8CBCA" transform="translate(403,187)"/>
<path d="M0 0 C0.33 0.99 0.66 1.98 1 3 C0 4.33333333 -1 5.66666667 -2 7 C-1.67 7.99 -1.34 8.98 -1 10 C-2.98 10.66 -4.96 11.32 -7 12 C-6.20994338 10.56161448 -5.41788955 9.12432585 -4.625 7.6875 C-4.18414062 6.88699219 -3.74328125 6.08648437 -3.2890625 5.26171875 C-2.26486665 3.46472057 -1.14732862 1.72099292 0 0 Z " fill="#C5C9CA" transform="translate(376,283)"/>
<path d="M0 0 C1 3 1 3 0 6 C-2.4375 7.75 -2.4375 7.75 -5 9 C-5.66 8.67 -6.32 8.34 -7 8 C-4.69 5.36 -2.38 2.72 0 0 Z " fill="#C4C6C8" transform="translate(366,298)"/>
<path d="M0 0 C3 3.75 3 3.75 3 6 C2.34 6 1.68 6 1 6 C0.67 6.66 0.34 7.32 0 8 C-0.66 5.69 -1.32 3.38 -2 1 C-1.34 0.67 -0.68 0.34 0 0 Z " fill="#1E1F1E" transform="translate(395,192)"/>
<path d="M0 0 C0.66 0 1.32 0 2 0 C6 5.41176471 6 5.41176471 6 8 C5.34 8 4.68 8 4 8 C0 3.64705882 0 3.64705882 0 0 Z " fill="#DADBDC" transform="translate(21,453)"/>
</svg>
